<svg id="描画レイヤー" xmlns="http://www.w3.org/2000/svg" viewBox="0 0 1390.93 1121.76"><defs><style>.cls-1{fill:#232323;}.cls-2{fill:#f45d48;}.cls-3{fill:#fff46b;}.cls-4{fill:#078080;}</style></defs><title>camera-icon</title><path class="cls-1" d="M1075.88,859.13c-.38,0-.75,0-1.15.1h0v0l-.26.06-.33,0-1.47.13a2.48,2.48,0,0,0-.27,0c-3.92.38-7.93.85-11.91,1.4a5.26,5.26,0,0,0-1.46.19l-.26,0c-.67.09-1.34.18-2.14.31l-4.13.62-.23,0c-1.42.23-2.84.47-4.46.77l-.76.14-1.09.2A286.13,286.13,0,0,0,980,884.09c-4.82,2.19-9.6,4.53-14.22,6.93a285.38,285.38,0,0,0-36.24,22.57l-.26.19-.61.45a288.07,288.07,0,0,0-27.79,23.33l-.41.38-.49.48c-5.65,5.4-11.14,11.12-16.33,17a291.63,291.63,0,0,0-31.29,42.47c-2.18,3.6-4.34,7.38-6.44,11.22A289.36,289.36,0,0,0,829.15,1046c-.06.14-.12.28-.17.43-2.66,7.09-5.08,14.46-7.17,21.89l-.12.4-.12.4-.07.27a287.12,287.12,0,0,0-10.1,63.06c-.14,2.76-.25,5.52-.31,8.27a284.34,284.34,0,0,0,2.32,43.18,2.54,2.54,0,0,0,0,.29l0,.39,0,.39.12.9,0,.23,0,.24.07.53.06.61.08.31.09.63.13.85c.06.44.13.88.22,1.47l.11.69.12.81.11.68.14.84c.08.43.14.87.21,1.3l.06.29.09.58.1.58.08.44.08.45.08.4c0,.25.08.49.15.83l.06.35a286.44,286.44,0,0,0,59.5,129.19,276.08,276.08,0,0,0,19.93,22.24,288.32,288.32,0,0,0,48.91,39.45q3.66,2.36,7.38,4.6a285.65,285.65,0,0,0,63.9,28.4q2.54.78,5.07,1.51c6.91,2,14.06,3.72,21.25,5.15q3.4.7,6.84,1.31c7,1.26,14,2.25,20.82,3a278.14,278.14,0,0,0,30.07,1.62,294.72,294.72,0,0,0,60.18-6.28,284,284,0,0,0,79-29.36q2.26-1.24,4.51-2.52a293.15,293.15,0,0,0,42.18-29.55,284.13,284.13,0,0,0,36.64-36.91q2.11-2.57,4.18-5.17c.87-1.1,1.73-2.2,2.58-3.32l.38-.5.24-.31c2-2.59,4-5.3,6-8l.19-.29a298.46,298.46,0,0,0,18.38-29.61l.64-1.18.19-.34.64-1.23.13-.25c.18-.32.34-.63.53-1a290.62,290.62,0,0,0,19.32-46.89,288.52,288.52,0,0,0-70-288.42,291.14,291.14,0,0,0-85.58-60,286.31,286.31,0,0,0-74-22.42,290.77,290.77,0,0,0-46.06-3.67c-8,0-16,.32-23.7,1ZM992,1402.76a287.24,287.24,0,0,1-61.76-36.06,293.42,293.42,0,0,1-27.16-24l-.66-.66-.18-.17-.29-.3-.29-.3-.26-.27c-.17-.16-.34-.34-.5-.51l-.31-.32-.23-.23-.22-.23-.19-.21-.2-.2-.18-.19-.19-.18-.44-.47a3.06,3.06,0,0,1-.3-.32l-.51-.52-.25-.26-.54-.57-.22-.24-.29-.31-.29-.31-.16-.17-.74-.81-.5-.54-.24-.26-.36-.39-.4-.44-.35-.38-.44-.49-.7-.78-.48-.54-.26-.29-.33-.37-.43-.47-.73-.84-.47-.54-.29-.33-.74-.86-.31-.36-.31-.37-.18-.2-.27-.33-.28-.32-.2-.23-.48-.6-.3-.32-.27-.33-.16-.19-.17-.21-.19-.21-.32-.39-.45-.58-.26-.28-.66-.81c-1.52-1.85-3-3.72-4.48-5.61a291.44,291.44,0,0,1-24.09-37.15l-.25-.46-.3-.56-.24-.44-.31-.59c-.15-.26-.28-.53-.42-.8l-.13-.23c-.12-.24-.25-.47-.38-.7l-.16-.33-.4-.76-.14-.28-.28-.54-.25-.49-.12-.23-.12-.25c-.1-.18-.2-.36-.28-.54l-.22-.43-.15-.29-.15-.3-.2-.39c-.1-.22-.21-.44-.32-.64a3,3,0,0,0-.15-.31l-.18-.36-.18-.37-.11-.23-.2-.4-.27-.56-.22-.44-.23-.48c-1.83-3.78-3.58-7.63-5.21-11.44a285.47,285.47,0,0,1-19.45-70.82l-.1-.82-.11-.78-.06-.56-.07-.63-.06-.53-.09-.68-.06-.54-.08-.64-.1-1,0-.22-.13-1.17c0-.31-.06-.62-.09-.94l0-.27,0-.46v-.46l-.06-.25-.05-.45,0-.46,0-.28,0-.45,0-.45,0-.28-.08-.89,0-.3,0-.46,0-.65h0l-.05-.24-.06-.76a2.55,2.55,0,0,1,0-.32l-.09-1.09-.09-1.18,0-.51,0-.66-.07-1.17,0-.56,0-.63c0-.35,0-.72-.06-1.16a289.71,289.71,0,0,1,2.05-51.86,273.69,273.69,0,0,1,40.91-111.57l.2-.35c.13-.21.25-.42.39-.61l.23-.35.22-.36.15-.22c4.07-6.31,8.51-12.61,13.19-18.75a290.7,290.7,0,0,1,25.61-28.72l.34-.33.33-.33.27-.26.26-.25.26-.25c.14-.14.28-.28.43-.41l.18-.17.18-.18.54-.52.25-.24.33-.32.45-.43c6.72-6.34,13.79-12.41,21-18,6.81-5.2,13.94-10.17,21.2-14.75l.4-.26.41-.25.32-.21.57-.35.25-.15.25-.16.41-.26.67-.39.25-.16c.26-.18.53-.34.91-.57A284.17,284.17,0,0,1,983,894.8l.36-.18.56-.26.28-.13.21-.09.22-.1c2.41-1.11,4.83-2.19,7.28-3.23,8.35-3.49,17-6.62,25.66-9.29l.21-.07.32-.09.32-.1a286.86,286.86,0,0,1,42.27-9.47l1.18-.16c3.75-.5,7.77-1,12-1.34l2.8-.25c7.59-.59,15.3-.9,22.93-.9a290.61,290.61,0,0,1,37.7,2.46,276.4,276.4,0,0,1,131.87,55.23,278.84,278.84,0,0,1,86.3,111.68,285.66,285.66,0,0,1,19.44,70.89A289.92,289.92,0,0,1,1375,1183a276.59,276.59,0,0,1-55.41,133.19,278.74,278.74,0,0,1-109.48,85.34l-.46.21-.46.19-.31.14-1,.43a285.84,285.84,0,0,1-55.31,16.83l-1.12.2c-.19,0-.38.08-.74.14-.15,0-.3.08-.63.14l-.3.05-.33,0-.48.09c-3.83.71-7.8,1.35-11.81,1.91-4.74.61-9.43,1.12-13.93,1.49-7.88.63-15.82,1-23.59,1a277.07,277.07,0,0,1-29-1.51c-2.72-.27-5.42-.59-8.12-.93l.32.08A285.25,285.25,0,0,1,992,1402.76Z" transform="translate(-402.21 -459.15)"/><path class="cls-1" d="M930.47,1152.24c0,90.22,73.4,163.62,163.62,163.62s163.62-73.4,163.62-163.62-73.4-163.61-163.62-163.61S930.47,1062,930.47,1152.24Z" transform="translate(-402.21 -459.15)"/><path class="cls-1" d="M1461.87,717.8a69.86,69.86,0,0,0-29.4,11.64,73.47,73.47,0,0,0-22,23.89,72.47,72.47,0,0,0-9.38,34,2.26,2.26,0,0,0,0,.26v.29a74.39,74.39,0,0,0,3,21.65A72,72,0,0,0,1473,861a70.08,70.08,0,0,0,8.73-.54,72.27,72.27,0,0,0,59.84-49.06l.06-.23a78.66,78.66,0,0,0,3.06-14.6,71.92,71.92,0,0,0-.44-18.55,69.79,69.79,0,0,0-12-30.09,73.55,73.55,0,0,0-23.15-21.35,69.35,69.35,0,0,0-16.53-7c-.19-.06-.37-.13-.56-.18a78.13,78.13,0,0,0-13.85-2.32c-1.49-.13-3.08-.19-4.71-.19a84.44,84.44,0,0,0-11.63.9ZM1465,849.52a68.29,68.29,0,0,1-15.46-4.19,69.39,69.39,0,0,1-13.62-7.91A71.92,71.92,0,0,1,1424.52,826a67.81,67.81,0,0,1-7.76-13.4,69.52,69.52,0,0,1-4.25-15.53,76.56,76.56,0,0,1-.48-9.85c.06-2,.22-4.14.47-6.43a70.52,70.52,0,0,1,4.17-15.38,69.4,69.4,0,0,1,8.24-14.08,71.4,71.4,0,0,1,10.69-10.67,61.21,61.21,0,0,1,29.3-12.32,73,73,0,0,1,8.29-.49c1.57,0,3.14.06,4.67.16,1.13.09,2.27.19,3.56.35l1,.17a61,61,0,0,1,28.09,12.12,72.67,72.67,0,0,1,10.93,11,70.41,70.41,0,0,1,7.92,13.6,69,69,0,0,1,4.25,15.51,70.44,70.44,0,0,1,0,16.29,72.35,72.35,0,0,1-2.75,11.54c-.46,1.35-1,2.69-1.49,4a70.46,70.46,0,0,1-7.9,13.58,72.13,72.13,0,0,1-10.83,10.92,69.75,69.75,0,0,1-14,8.19,70.63,70.63,0,0,1-15.58,4.25,72.51,72.51,0,0,1-8,.46,68.35,68.35,0,0,1-8.15-.48Z" transform="translate(-402.21 -459.15)"/><path class="cls-1" d="M1338.42,593.81H869.07v.05H702.9l-25.32-.05h-61.2a5.54,5.54,0,0,0,0,11.08h5.13l0-.06h972l0,.06h8.25a5.54,5.54,0,0,0,0-11.08Z" transform="translate(-402.21 -459.15)"/><path class="cls-1" d="M620.66,1575.38a5.58,5.58,0,0,0,5.54,5.53h18.4a5.53,5.53,0,0,0,.66-11H625.63a5.6,5.6,0,0,0-5,5.51Z" transform="translate(-402.21 -459.15)"/><path class="cls-1" d="M1609.59,1569.84H1605l0,.05H663.34l-90.09-.05h-9a5.54,5.54,0,1,0,0,11.07H1611.4a5.54,5.54,0,1,0,0-11.07Z" transform="translate(-402.21 -459.15)"/><path class="cls-1" d="M612.53,598.75q-5,4.8-9.93,9.71l-.21.2-2.92,2.94-.07.07c-.34.35-.69.7-1,1.06-.86.86-1.71,1.74-2.56,2.61l-.07.07c-.81.84-1.62,1.67-2.42,2.51l-.2.21q-10.14,10.62-19.8,21.66l-.13.15-.71.81-.75.88,0,0q-3.88,4.49-7.7,9.07l-.1.12c-.77.93-1.54,1.84-2.3,2.77-.08.1-.17.22-.26.32q-11.24,13.71-21.77,28c-.1.11-.18.24-.28.37l-1.69,2.31a.6.6,0,0,0-.09.13l-.77,1.06a3.79,3.79,0,0,0-.3.4c-1.27,1.75-2.52,3.49-3.77,5.25-.39.55-.78,1.09-1.17,1.65l-.15.23q-11.43,16.24-21.91,33.13s-.07.1-.1.16l-1,1.56s-.05.09-.09.14q-10.17,16.62-19.45,33.77c-.13.25-.26.5-.4.75l-.11.21-1.68,3.14-.53,1s-.06.12-.09.18q-9.94,18.92-18.77,38.4l-.1.24A725.86,725.86,0,0,0,416.72,964a767.1,767.1,0,0,0-14.23,169.87c.29,11,.86,22,1.62,33,0,0,0,.1,0,.15l.07,1.09c0,.06,0,.13,0,.2q.54,7.35,1.21,14.69s0,.07,0,.1c0,.23,0,.45.06.68.09.89.17,1.77.25,2.65,0,.15,0,.31.05.45a759.31,759.31,0,0,0,26,136.54c0,.06,0,.13.05.21a.83.83,0,0,0,0,.15,738.61,738.61,0,0,0,35.46,96c0,.1.08.19.12.29l.26.57h0q11.16,24.56,24.16,48.23l0,.08c.47.88,1,1.75,1.45,2.63a1.74,1.74,0,0,0,.11.18l.68,1.21c0,.1.09.19.14.3.32.54.62,1.09.93,1.63l.68,1.2.4.71a.41.41,0,0,1,.05.09q9.45,16.56,19.76,32.61c.05.08.12.16.17.23l.72,1.14.11.16.89,1.36,0,0v0c.14.21.27.42.41.62l.11.16q2.88,4.39,5.84,8.78l.29.39q8.38,12.34,17.31,24.31l.1.14c.94,1.25,1.87,2.49,2.82,3.72a1.48,1.48,0,0,0,.08.13l.63.82,1.57,2.06a1.56,1.56,0,0,0,.16.2l.59.76a5.28,5.28,0,0,0,.85,1.11l.48.62c.1.13.2.25.29.38l1.45,1.86.08.09c.13.17.26.33.38.5l.27.35,2.94,3.73.12.13q4.46,5.6,9,11.09a5.35,5.35,0,0,0,3.91,1.62,5.53,5.53,0,0,0,5.54-5.54,6.06,6.06,0,0,0,0-.62h0a6,6,0,0,0-1.57-3.26c-3.45-4.17-6.94-8.46-10.35-12.76-1.46-1.86-2.91-3.72-4.39-5.64l-.19-.24c-.72-.93-1.44-1.88-2.21-2.93l-.17-.19c-7.33-9.68-14.58-19.81-21.54-30.14-2.06-3.07-4.11-6.15-6.21-9.39-.39-.6-.78-1.19-1.16-1.8-7.3-11.35-14.32-23-20.87-34.62q-1.41-2.49-2.8-5c-8.75-15.9-17-32.36-24.53-48.93-2.48-5.49-4.86-10.91-7.07-16.13a738.11,738.11,0,0,1-27.59-77.92A755.49,755.49,0,0,1,420,1214.54l0-.35a2.33,2.33,0,0,1,0-.38c-1.36-10.28-2.51-20.43-3.42-30.17-.48-5.13-.91-10.43-1.34-16.19a776.36,776.36,0,0,1,4.74-155.93A736.76,736.76,0,0,1,470.1,826.66l.17-.41.2-.46q3.06-7.18,6.26-14.31l.13-.27c6-13.22,12.42-26.4,19.16-39.15l.6-1.14,1.34-2.51c6.44-12,13.34-24,20.53-35.63,7.83-12.65,16.09-25.09,24.57-37l2.32-3.23.63-.88.81-1.1.8-1.12c2.74-3.72,5.35-7.21,7.82-10.37l1.77-2.32h0l-.11.14.11-.14-.14.1c4.16-5.37,8.72-11.07,13.56-16.94q4.62-5.57,9.35-11c7.22-8.29,14.73-16.5,22.29-24.37,1.53-1.57,3.06-3.15,4.66-4.76l.35-.37.35-.35c4.27-4.32,8.56-8.53,12.71-12.5a5.52,5.52,0,0,0,1.2-1.71h0a5.69,5.69,0,0,0-1.19-6.09,5.47,5.47,0,0,0-3.87-1.6,5.77,5.77,0,0,0-4,1.6Z" transform="translate(-402.21 -459.15)"/><path class="cls-1" d="M1595.07,600.67a5.45,5.45,0,0,0-1.59,4.17h0l0,0a5.67,5.67,0,0,0,1.57,3.58c4.53,4.78,8.73,9.31,12.85,13.87l.45.5.21.24,1.48,1.66c1,1.07,1.91,2.16,2.86,3.24,7.11,8.11,14.21,16.63,21.1,25.33l.33.42.65.83,1.81,2.31.3.38.3.39,1.25,1.62.45.6.53.68,2.14,2.82.93,1.24,1,1.27c7.38,9.88,14.68,20.24,21.67,30.78l.14.2c.09.15.19.29.29.44l.19.3c8,12.11,15.75,24.78,23.11,37.66,10.43,18.36,20.19,37.5,29,56.9,2.61,5.78,5.14,11.57,7.52,17.23a731.72,731.72,0,0,1,39.54,125.71c4.11,18.91,7.54,38.36,10.22,57.82a784,784,0,0,1,6.75,101.52c0,25.53-1.32,51.16-3.88,76.49q-1.24,12.39-2.87,24.74l.09-.35a755.89,755.89,0,0,1-18.81,93.45,701.9,701.9,0,0,1-24.48,74.43q-3.5,9-7.23,17.87l.15-.28a702.41,702.41,0,0,1-47.19,91.82l-1.78,2.87-1.09,1.79c-.25.37-.48.74-.71,1.12-2.41,3.83-4.86,7.64-7.44,11.56l-1.16,1.76-.44.68-.8,1.19-.42.63-.24.37-.26.4-.27.39c-1.48,2.2-3,4.41-4.5,6.59l-.21.34-.51.74-.51.74-.17.25-.18.24-.66,1-.29.39-.46.67-.43.62-.44.62c-.2.28-.4.56-.59.85l-.54.76-.22.3-.3.44-1,1.42-.73,1-.74,1-.21.29-.22.31-1.41,1.92-1.45,2-.28.38-.27.38-.35.45-.34.49q-3.06,4.15-6.2,8.22l-.23.35-.19.25-.2.26-1,1.35-.58.75c-4.54,5.83-9.3,11.77-14.19,17.62l-.22.3-.19.24c-1.43,1.7-2.87,3.41-4.31,5.1l-.68.8-.8.94-.35.41-.44.5c-3.69,4.27-7.51,8.59-11.71,13.2h0l-.1.1a6,6,0,0,0-1.6,4,5.4,5.4,0,0,0,1.6,3.78,5.57,5.57,0,0,0,7.84,0q3.77-4.14,7.47-8.35c.65-.73,1.29-1.47,1.94-2.21l.11-.12.62-.7,2-2.34a1.34,1.34,0,0,1,.11-.14l.92-1.06.26-.32.13-.15c.45-.52.89-1,1.34-1.58a1.15,1.15,0,0,0,.14-.17c.21-.23.41-.48.61-.71l.08-.09,1.54-1.82.12-.15,1-1.18.12-.14c.08-.12.18-.22.26-.32l0,0,.87-1c.59-.7,1.17-1.41,1.76-2.12l.3-.38.2-.25a1.83,1.83,0,0,0,.13-.16q9.33-11.41,18.19-23.21c.09-.12.19-.24.28-.37l.68-.91c.25-.34.5-.69.76-1v0l1.29-1.75a.44.44,0,0,0,.08-.11l.08-.11c.71-1,1.42-1.92,2.12-2.89l0,0c.21-.3.43-.59.65-.89a0,0,0,0,0,0,0l0,0,.18-.25,1.59-2.2.12-.18.7-1c.08-.11.15-.22.24-.33.59-.82,1.17-1.65,1.75-2.47l0-.07.57-.82.27-.38,1.15-1.64.13-.2,1.23-1.76q3.13-4.51,6.19-9.1l.16-.23.9-1.36.55-.81.64-1c.32-.48.64-1,1-1.44l.28-.41q2.63-4,5.22-8.09a1.88,1.88,0,0,1,.12-.18l1.36-2.15a2.13,2.13,0,0,0,.16-.25l1.5-2.39a.64.64,0,0,1,.08-.14c.31-.49.62-1,.92-1.49a1,1,0,0,0,.09-.13c.41-.68.84-1.36,1.25-2l.91-1.48s.06-.11.1-.17A713.86,713.86,0,0,0,1757.46,1325a748.68,748.68,0,0,0,33.23-169.18c1.66-20.4,2.43-40.88,2.45-61.34v-1.35c0-.06,0-.13,0-.2a770.16,770.16,0,0,0-17-159,1.52,1.52,0,0,1,0-.21c-.18-.79-.35-1.59-.52-2.38,0-.05,0-.09,0-.13a743.6,743.6,0,0,0-19.7-72.18A729,729,0,0,0,1728,787.35a2.55,2.55,0,0,1-.13-.29l-.26-.57,0,0q-13.18-29-28.91-56.72c0-.06-.06-.12-.09-.19-.28-.48-.56-1-.82-1.43a1,1,0,0,1-.1-.18s0,0,0,0q-10.71-18.6-22.51-36.52c-.2-.31-.41-.61-.61-.93a2.49,2.49,0,0,1-.17-.24q-10.12-15.18-21-29.81l-.1-.16-2.14-2.84-.21-.27c-.16-.2-.31-.4-.46-.61a1.7,1.7,0,0,1-.1-.14l-.78-1-.59-.78-.09-.12-.16-.2-1.29-1.69a5.24,5.24,0,0,0-.88-1.12l-.39-.51-1.2-1.55-1.1-1.41c-.09-.13-.18-.24-.27-.36l-1.06-1.34-1.78-2.26-.13-.15q-8.86-11.1-18.16-21.82c-.08-.1-.17-.2-.24-.3l-3-3.42a.34.34,0,0,1-.08-.09.13.13,0,0,1-.06-.07c-.23-.24-.45-.49-.67-.74l-2.11-2.38a.12.12,0,0,1-.06-.06c-.12-.12-.22-.23-.32-.35l0,0-.14-.14c-.28-.32-.57-.64-.86-1a6.42,6.42,0,0,0-.43-.48l-.16-.2-.29-.3-.81-.91-.24-.24q-4.94-5.42-10-10.74a5.33,5.33,0,0,0-3.87-1.6,5.62,5.62,0,0,0-4,1.6Z" transform="translate(-402.21 -459.15)"/><path class="cls-1" d="M705.05,459.15H667.87a5.59,5.59,0,0,0-5.54,5.54v80.14a5.54,5.54,0,0,0,11,.75v-45.7l0-29.7H869.07l0,.05,0,123.63v3.42a5.54,5.54,0,1,0,11.08,0V464.69a5.59,5.59,0,0,0-5.54-5.54Z" transform="translate(-402.21 -459.15)"/><path class="cls-1" d="M662.33,499.88V593.8a5.54,5.54,0,0,0,11.08,0h0V499.15a5.54,5.54,0,0,0-11,.73Z" transform="translate(-402.21 -459.15)"/><path class="cls-2" d="M1473.19,727.9a73.23,73.23,0,0,0-8.3.48,61,61,0,0,0-29.29,12.32,71.4,71.4,0,0,0-10.69,10.67,61.09,61.09,0,0,0-12.41,29.46c-.25,2.29-.4,4.39-.46,6.42a76.87,76.87,0,0,0,.47,9.87,69.73,69.73,0,0,0,4.25,15.52,67.45,67.45,0,0,0,7.76,13.39,71.16,71.16,0,0,0,11.36,11.39,69.39,69.39,0,0,0,13.62,7.91,58.81,58.81,0,0,0,23.61,4.67,72.51,72.51,0,0,0,8-.46,61.23,61.23,0,0,0,48.28-36.94c.53-1.31,1-2.65,1.49-4a72.09,72.09,0,0,0,2.75-11.54,71,71,0,0,0,0-16.29,61.13,61.13,0,0,0-12.17-29.11,73.2,73.2,0,0,0-10.94-11,60.88,60.88,0,0,0-28.07-12.12l-1.06-.16c-1.29-.17-2.42-.27-3.56-.36-1.53-.1-3.1-.15-4.67-.15Z" transform="translate(-402.21 -459.15)"/><path class="cls-3" d="M1099.55,869.15c-7.63,0-15.34.3-22.93.9l-2.81.24c-4.19.39-8.21.84-12,1.34l-1.17.17a285,285,0,0,0-42.27,9.46l-.32.09-.32.1-.21.07c-8.68,2.68-17.31,5.8-25.66,9.28-2.45,1.05-4.87,2.12-7.28,3.24l-.22.1-.21.09-.28.13-.56.26-.36.17a286.51,286.51,0,0,0-27.17,14.55c-.38.23-.65.39-.92.57l-.24.16-.67.39-.41.26-.25.15-.25.16-.57.35-.32.2-.41.25-.4.26c-7.26,4.59-14.39,9.56-21.2,14.76-7.21,5.62-14.28,11.69-21,18l-.45.43-.34.32-.25.25-.54.51-.18.18-.18.17c-.15.13-.29.27-.43.41l-.26.25-.26.25-.26.26-.34.33-.34.33a292,292,0,0,0-25.61,28.72c-4.69,6.13-9.12,12.44-13.19,18.74l-.15.23-.22.35L866,997c-.14.19-.27.4-.4.6l-.19.36a273.69,273.69,0,0,0-40.91,111.57,289.68,289.68,0,0,0-2.05,51.86c0,.44.05.8.07,1.17l0,.63,0,.55.08,1.18,0,.66,0,.5.08,1.18.09,1.09a2.1,2.1,0,0,0,0,.32l.06.77,0,.22h0l.06.66,0,.45,0,.3.07.89.06.28v.45l0,.45,0,.28,0,.46,0,.45,0,.25,0,.46,0,.46,0,.28c0,.31.07.62.09.93l.13,1.17,0,.23.1,1,.08.64.06.54.09.68.06.53.08.63.06.56.1.79.11.81a284.59,284.59,0,0,0,19.44,70.82c1.63,3.81,3.38,7.66,5.21,11.44l.23.48.22.44.26.56.2.4.12.23.18.37.18.37q.08.14.15.3c.11.21.21.42.32.64l.2.39.14.3.16.3.22.42c.08.18.18.36.27.55l.12.24.13.23c.08.17.17.33.25.49l.27.54.15.28.4.76.16.33c.13.23.25.47.37.7l.14.23c.13.27.27.54.42.8l.31.6.23.43.31.56.25.46a290.74,290.74,0,0,0,24.09,37.15c1.48,1.89,3,3.76,4.48,5.61.28.34.47.58.67.81l.26.28.44.58.33.39.18.21.17.21.16.18.27.33.3.32.48.61.2.23.28.32.27.33.18.2.31.36.31.37.75.85.28.33.47.55.73.84.43.47.33.37.26.29.48.54.7.78.44.49.35.38.4.43.36.4.24.26.5.54.74.8.16.18.29.31.3.31.21.23.54.57.25.26.51.53.3.32.45.47.18.18.18.19.2.2.19.21.22.22.23.24.31.32.5.51.26.27.3.3.28.29.18.18.66.65a290.8,290.8,0,0,0,27.16,24A276.54,276.54,0,0,0,1062.82,1422l-.64-.17a275.58,275.58,0,0,0,37.46,2.52c7.77,0,15.71-.32,23.59-1,4.51-.37,9.2-.87,13.93-1.49,4-.56,8-1.2,11.82-1.9l.47-.09.32-.06.31-.05.63-.13c.36-.06.54-.09.73-.14l1.14-.2a285.75,285.75,0,0,0,55.3-16.83l1-.42.31-.14.46-.2.46-.21a277.73,277.73,0,0,0,145.3-363.06,276.64,276.64,0,0,0-255.87-169.36Zm-5.46,446.72c-90.22,0-163.62-73.41-163.62-163.63s73.4-163.62,163.62-163.62,163.62,73.4,163.62,163.62-73.4,163.63-163.62,163.63Z" transform="translate(-402.21 -459.15)"/><path class="cls-4" d="M1593.48,604.84H621.53a5.36,5.36,0,0,1-1.2,1.71c-4.16,4-8.43,8.18-12.71,12.5l-.35.35-.35.37c-1.59,1.62-3.13,3.19-4.66,4.77-7.57,7.86-15.07,16.06-22.28,24.37q-4.74,5.48-9.36,11c-4.83,5.87-9.4,11.57-13.56,16.95l.27-.21c-3,3.78-6.26,8.09-9.71,12.78l-.8,1.12-.81,1.1-.63.88c-.79,1.1-1.56,2.16-2.32,3.23-8.48,11.9-16.75,24.34-24.57,37-7.19,11.68-14.1,23.67-20.53,35.63l-1.34,2.51-.6,1.15c-6.74,12.75-13.18,25.92-19.17,39.15l-.13.27q-3.18,7.14-6.25,14.31l-.2.46-.18.41a736.75,736.75,0,0,0-50.17,184.86,775.62,775.62,0,0,0-4.74,155.93c.43,5.76.87,11.06,1.34,16.19.91,9.73,2.06,19.89,3.42,30.17,0,.13,0,.26,0,.38l.06.35a754.06,754.06,0,0,0,22.56,106.34,735.07,735.07,0,0,0,27.59,77.92c2.21,5.22,4.59,10.65,7.07,16.13,7.53,16.57,15.78,33,24.53,48.93q1.4,2.52,2.8,5c6.55,11.63,13.56,23.27,20.87,34.62.38.61.77,1.21,1.16,1.8,2.1,3.24,4.14,6.32,6.21,9.4,7,10.31,14.21,20.45,21.54,30.13l.17.18c.77,1.06,1.49,2,2.21,2.94l.19.24c1.48,1.92,2.93,3.77,4.39,5.63,3.41,4.31,6.9,8.6,10.35,12.77a6,6,0,0,1,1.57,3.26l90.09,0h941.6c4.2-4.6,8-8.92,11.71-13.19l.44-.5.35-.41.8-.94.68-.8q2.16-2.55,4.31-5.11l.19-.23.22-.3c4.89-5.85,9.66-11.78,14.19-17.63l.58-.75,1-1.34.2-.26.19-.25.23-.35q3.15-4.07,6.2-8.23l.35-.47.34-.46.27-.37.29-.39,1.44-2,1.41-1.93.22-.31.21-.29.74-1,.74-1,1-1.42.3-.43.22-.3.54-.77c.19-.29.39-.57.59-.84l.44-.63.44-.62.45-.67.29-.39.67-1,.17-.25.17-.25.51-.73.51-.75.21-.34q2.28-3.27,4.5-6.59l.27-.39.26-.4.24-.36.42-.63.8-1.2.44-.67,1.16-1.77c2.58-3.92,5-7.73,7.44-11.55.23-.38.46-.76.7-1.13l1.11-1.79,1.77-2.86a705.7,705.7,0,0,0,47.2-91.83l-.33.57a706.89,706.89,0,0,0,31.89-92.6,757.18,757.18,0,0,0,18.8-93.44l-.18.71a763.57,763.57,0,0,0,6.83-101.59,780.31,780.31,0,0,0-6.75-101.52c-2.67-19.46-6.11-38.91-10.21-57.82a732.6,732.6,0,0,0-39.54-125.71c-2.38-5.66-4.91-11.46-7.52-17.23-8.81-19.4-18.57-38.54-29-56.9-7.36-12.88-15.14-25.55-23.11-37.66l-.19-.3c-.1-.15-.2-.29-.29-.44l-.14-.2c-7-10.54-14.29-20.9-21.67-30.78l-.94-1.27-.94-1.24-2.14-2.82-.53-.68-.45-.6-1.25-1.62-.3-.39-.3-.38-1.81-2.3-.65-.83-.33-.43c-6.89-8.7-14-17.22-21.1-25.33l-2.86-3.24-1.48-1.66-.22-.24-.45-.5c-4.11-4.56-8.32-9.1-12.84-13.87a5.73,5.73,0,0,1-1.58-3.58l0,0ZM1473,861a72.12,72.12,0,0,1-30.5-6.8A72.14,72.14,0,0,1,1404,809.53a74.5,74.5,0,0,1-3-21.66v-.29a2,2,0,0,1,0-.25,72.36,72.36,0,0,1,9.38-34,73.47,73.47,0,0,1,22-23.89,69.71,69.71,0,0,1,29.41-11.64,84.19,84.19,0,0,1,11.62-.9c1.63,0,3.21.06,4.7.19a77.17,77.17,0,0,1,13.86,2.33,5.22,5.22,0,0,1,.56.18,68.75,68.75,0,0,1,16.53,7,73.46,73.46,0,0,1,23.15,21.36,69.65,69.65,0,0,1,12,30.09,71.39,71.39,0,0,1,.44,18.54,78.66,78.66,0,0,1-3.06,14.6l-.05.23A72.55,72.55,0,0,1,1501.76,855a72.16,72.16,0,0,1-20,5.41,70.2,70.2,0,0,1-8.73.55Zm-398.28-1.77h0c.39,0,.77-.08,1.14-.09,7.74-.65,15.72-1,23.7-1a290.77,290.77,0,0,1,46.06,3.67,286.21,286.21,0,0,1,74,22.43,289.46,289.46,0,0,1,145.61,149.57,289.19,289.19,0,0,1,10,198.86,290.51,290.51,0,0,1-19.32,46.88c-.19.37-.35.69-.53,1l-.13.25-.65,1.23-.18.33-.64,1.19a294.88,294.88,0,0,1-18.38,29.6l-.19.3c-2,2.72-4,5.43-6,8l-.24.3-.38.5q-1.28,1.68-2.58,3.33c-1.38,1.74-2.77,3.45-4.18,5.16a284.12,284.12,0,0,1-36.64,36.91,293.15,293.15,0,0,1-42.18,29.55c-1.5.85-3,1.69-4.51,2.52a283.86,283.86,0,0,1-79,29.36,294.79,294.79,0,0,1-60.18,6.28,280.71,280.71,0,0,1-30.07-1.62c-6.8-.7-13.8-1.69-20.81-2.94q-3.43-.61-6.86-1.32c-7.18-1.43-14.33-3.17-21.24-5.15-1.7-.49-3.38-1-5.07-1.51a285.37,285.37,0,0,1-63.89-28.4c-2.49-1.5-4.94-3-7.38-4.6a288,288,0,0,1-48.92-39.45,278,278,0,0,1-19.93-22.24A286.71,286.71,0,0,1,815.76,1199l-.06-.35c-.07-.35-.11-.59-.15-.84l-.07-.4-.08-.45-.08-.43-.1-.59-.1-.58,0-.28c-.07-.44-.14-.87-.22-1.3l-.14-.84-.1-.68-.13-.82-.1-.68c-.1-.59-.17-1-.23-1.47l-.13-.85-.08-.63-.07-.31-.07-.61-.07-.54,0-.23,0-.23q-.07-.45-.12-.9l-.06-.39,0-.39,0-.29a284.34,284.34,0,0,1-2.32-43.18q.09-4.12.3-8.27a287.83,287.83,0,0,1,10.12-63.06l.06-.27.13-.4.11-.41c2.09-7.42,4.51-14.78,7.17-21.88.06-.15.11-.29.17-.43A288,288,0,0,1,846,1009.08c2.09-3.84,4.26-7.62,6.44-11.22a292.26,292.26,0,0,1,31.29-42.48c5.19-5.85,10.68-11.55,16.33-17l.49-.48.41-.38a289.16,289.16,0,0,1,27.78-23.33l.62-.45.26-.19A285.38,285.38,0,0,1,965.82,891c4.62-2.4,9.41-4.74,14.22-6.93A287.13,287.13,0,0,1,1046,863.15l1.09-.2.76-.14c1.62-.29,3-.53,4.47-.77l.22,0,4.13-.62c.81-.13,1.47-.23,2.14-.31l.27,0a5.13,5.13,0,0,1,1.45-.2c4-.54,8-1,11.91-1.39a1.24,1.24,0,0,1,.27,0l1.48-.14.32,0,.26,0h0Z" transform="translate(-402.21 -459.15)"/><polygon class="cls-2" points="466.86 11.03 432.19 11.03 271.2 11.03 271.15 40.73 271.15 134.65 300.68 134.7 466.86 134.7 466.9 11.08 466.86 11.03 466.86 11.03 466.86 11.03"/></svg>