<svg id="レイヤー_1" data-name="レイヤー 1" xmlns="http://www.w3.org/2000/svg" viewBox="0 0 842.09 485.27"><defs><style>.cls-1{fill:#232323;}.cls-2{fill:#f45d48;}.cls-3{fill:#fff46b;}.cls-4{fill:#078080;}.cls-5{font-size:175.13px;fill:#fff;stroke:#1a1a1a;stroke-miterlimit:10;stroke-width:2px;font-family:LiebeDoni-Outline, LiebeDoni;}</style></defs><title>logo</title><path class="cls-1" d="M690.72,423.67a4.21,4.21,0,0,0-.5,0h0l-.12,0H690l-.64.06h-.12c-1.69.17-3.43.37-5.15.6a2.13,2.13,0,0,0-.63.09h-.11l-.93.14-1.78.27-.1,0c-.61.1-1.23.2-1.93.33l-.33.06-.47.09a124.05,124.05,0,0,0-28.52,9c-2.09,1-4.16,2-6.16,3a122.43,122.43,0,0,0-15.67,9.77l-.11.08-.27.19a124.62,124.62,0,0,0-12,10.09l-.18.17-.21.21c-2.44,2.33-4.82,4.8-7.06,7.34A126.16,126.16,0,0,0,594,483.68c-.94,1.56-1.88,3.19-2.78,4.85a125.56,125.56,0,0,0-7.28,16c0,.06-.05.12-.07.19-1.15,3.07-2.2,6.25-3.1,9.47l0,.17,0,.17,0,.12a124.48,124.48,0,0,0-4.38,27.28c-.06,1.19-.1,2.39-.13,3.58a123.22,123.22,0,0,0,1,18.68.49.49,0,0,0,0,.12l0,.17,0,.17.06.39v.2l0,.23,0,.27,0,.13,0,.27.06.37c0,.19,0,.38.09.64l0,.29.06.35,0,.3.06.36.09.57,0,.12,0,.25,0,.25,0,.19,0,.2,0,.17.07.36,0,.15a127.05,127.05,0,0,0,4.1,16.19,125.24,125.24,0,0,0,9,20.78,127,127,0,0,0,12.67,18.92,123.59,123.59,0,0,0,8.62,9.62,125.42,125.42,0,0,0,21.17,17.07c1,.67,2.11,1.34,3.19,2a123.27,123.27,0,0,0,27.64,12.29c.73.23,1.46.44,2.19.65,3,.86,6.08,1.61,9.19,2.23,1,.2,2,.39,3,.57,3,.54,6.06,1,9,1.27a119.69,119.69,0,0,0,13,.7,127.78,127.78,0,0,0,26-2.71,122.87,122.87,0,0,0,34.16-12.7l1.95-1.09a127,127,0,0,0,18.25-12.79,123.27,123.27,0,0,0,15.85-16c.61-.74,1.21-1.49,1.8-2.24.38-.47.75-1,1.12-1.44l.17-.21.1-.13c.86-1.13,1.73-2.3,2.58-3.47l.08-.13a127.32,127.32,0,0,0,8-12.81l.28-.51.08-.15.28-.53.06-.11.22-.43A124.81,124.81,0,0,0,701,423.25c-3.46,0-6.9.14-10.25.42ZM654.41,658.84a125,125,0,0,1-26.72-15.6,128.11,128.11,0,0,1-11.75-10.4l-.28-.29-.08-.07-.12-.13-.13-.13-.11-.12-.22-.22-.14-.14-.09-.1-.1-.1-.08-.09-.09-.08-.08-.08-.08-.08-.19-.2-.13-.14-.22-.23-.11-.11-.23-.25-.09-.1-.13-.14-.13-.13-.06-.08-.33-.34-.21-.24-.11-.11-.15-.17-.17-.19-.15-.16-.2-.22-.3-.33-.21-.24-.11-.12-.14-.16-.19-.21-.31-.36-.21-.24-.12-.14-.32-.37-.14-.16-.13-.15-.08-.09-.12-.14-.12-.14-.08-.1-.21-.26-.13-.14-.12-.14-.07-.08-.07-.1-.08-.09-.14-.16-.19-.25-.12-.12-.28-.36c-.66-.8-1.3-1.61-1.94-2.42a125.09,125.09,0,0,1-10.42-16.08l-.11-.19-.13-.25-.1-.18-.14-.26-.18-.35-.06-.1c0-.1-.1-.2-.16-.3l-.07-.14-.17-.33-.07-.12-.12-.23c0-.08-.07-.15-.1-.22l-.06-.1,0-.1-.12-.24-.09-.18-.07-.13-.06-.13-.09-.17c0-.09-.09-.19-.14-.28l-.06-.13-.08-.16-.08-.16-.05-.1-.08-.17-.12-.24-.09-.19-.1-.21c-.79-1.63-1.55-3.3-2.26-4.95A123.37,123.37,0,0,1,582,564.3l-.05-.35,0-.34,0-.24,0-.27,0-.23,0-.3,0-.23,0-.27-.05-.43v-.09l-.06-.51c0-.14,0-.27,0-.4v-.12l0-.2v-.2l0-.11,0-.19v-.2l0-.13v-.39l0-.12,0-.38,0-.13v-.2l0-.28h0l0-.1,0-.33v-.14l0-.47,0-.51v-.22l0-.29,0-.51v-.24l0-.27c0-.15,0-.31,0-.5A126.26,126.26,0,0,1,582,532a118.39,118.39,0,0,1,17.7-48.27l.08-.15.17-.27.1-.15.1-.15.06-.1c1.76-2.73,3.68-5.45,5.71-8.11A125.06,125.06,0,0,1,617,462.35l.14-.14.15-.14.11-.11.12-.11.11-.11.18-.17.08-.08.08-.08.23-.22.11-.1.15-.14.19-.19c2.91-2.74,6-5.37,9.08-7.8,3-2.25,6-4.4,9.18-6.38l.17-.11.17-.11.14-.09.25-.15.11-.07.11-.07.17-.11.3-.17.1-.07.4-.24a122.62,122.62,0,0,1,11.75-6.3l.16-.07.24-.11.12-.06.09,0,.09,0c1-.48,2.1-.95,3.15-1.4,3.62-1.51,7.35-2.86,11.1-4l.1,0,.13,0,.14,0a124.41,124.41,0,0,1,18.29-4.1l.51-.07c1.62-.21,3.36-.41,5.17-.58l1.22-.1c3.28-.26,6.62-.39,9.91-.39a126.55,126.55,0,0,1,16.31,1.06,119.67,119.67,0,0,1,57,23.89,125.4,125.4,0,0,1,21.84,21.84,119.75,119.75,0,0,1,23.9,57.14,125.35,125.35,0,0,1,.07,31.86,119.82,119.82,0,0,1-24,57.62,120.73,120.73,0,0,1-47.36,36.91l-.2.09-.2.09-.13.06-.44.18A123.06,123.06,0,0,1,723.89,666l-.48.09-.32.06-.27.06-.14,0-.14,0-.2,0c-1.66.31-3.38.58-5.11.83-2.05.26-4.08.48-6,.64-3.41.27-6.84.42-10.2.42a121.79,121.79,0,0,1-12.55-.65c-1.18-.12-2.35-.26-3.52-.41l.14,0a123.5,123.5,0,0,1-30.66-8.34Z" transform="translate(-268.91 -250.64)"/><path class="cls-1" d="M627.81,550.46a70.78,70.78,0,1,0,70.78-70.77,70.86,70.86,0,0,0-70.78,70.77Z" transform="translate(-268.91 -250.64)"/><path class="cls-1" d="M857.7,362.53a30.31,30.31,0,0,0-12.73,5,31.74,31.74,0,0,0-9.52,10.34,31.29,31.29,0,0,0-4.06,14.7.41.41,0,0,0,0,.11v.13a32.18,32.18,0,0,0,1.28,9.37,31.18,31.18,0,0,0,29.86,22.26,29.63,29.63,0,0,0,3.78-.24,30.92,30.92,0,0,0,15.63-6.54A31.51,31.51,0,0,0,892.18,403l0-.1a33.88,33.88,0,0,0,1.32-6.32,30.86,30.86,0,0,0-.19-8,30.17,30.17,0,0,0-5.18-13,31.73,31.73,0,0,0-10-9.23,30,30,0,0,0-7.16-3l-.24-.08a34.17,34.17,0,0,0-6-1c-.64-.05-1.33-.08-2-.08a35.38,35.38,0,0,0-5,.39Zm1.33,57a26.46,26.46,0,0,1-12.58-5.24,30.47,30.47,0,0,1-4.91-4.92,29,29,0,0,1-3.36-5.8,29.92,29.92,0,0,1-1.84-6.71,33.55,33.55,0,0,1-.21-4.27c0-.88.1-1.79.21-2.77a26.29,26.29,0,0,1,5.37-12.75,31,31,0,0,1,4.62-4.62A26.56,26.56,0,0,1,859,367.1a31.39,31.39,0,0,1,3.59-.21c.68,0,1.36,0,2,.07.49,0,1,.08,1.54.15l.46.08a26.26,26.26,0,0,1,12.15,5.24,31.57,31.57,0,0,1,4.72,4.74,30.35,30.35,0,0,1,3.43,5.89,29.68,29.68,0,0,1,1.84,6.71,31.27,31.27,0,0,1,0,7,32.42,32.42,0,0,1-1.2,5c-.19.58-.41,1.16-.64,1.73a30.15,30.15,0,0,1-3.42,5.87,31.17,31.17,0,0,1-4.68,4.72,30.37,30.37,0,0,1-6,3.55,30.75,30.75,0,0,1-6.75,1.84,30,30,0,0,1-7,0Z" transform="translate(-268.91 -250.64)"/><path class="cls-1" d="M804.29,308.89h-203v0H529.37l-11,0H491.94a2.4,2.4,0,1,0,0,4.79h2.22v0H914.63l0,0h3.57a2.4,2.4,0,0,0,0-4.79Z" transform="translate(-268.91 -250.64)"/><path class="cls-1" d="M493.79,733.51a2.41,2.41,0,0,0,2.4,2.39h8a2.39,2.39,0,0,0,.29-4.77h-8.5a2.42,2.42,0,0,0-2.15,2.38Z" transform="translate(-268.91 -250.64)"/><path class="cls-1" d="M921.6,731.11h-2l0,0H512.26l-39,0H469.4a2.4,2.4,0,1,0,0,4.79h453a2.4,2.4,0,0,0,0-4.79Z" transform="translate(-268.91 -250.64)"/><path class="cls-1" d="M490.28,311q-2.17,2.07-4.3,4.2l-.09.08-1.26,1.28,0,0-.45.45L483,318.2l0,0L482,319.32l-.08.09q-4.39,4.59-8.57,9.37l-.05.06-.31.36-.33.37v0q-1.68,1.95-3.33,3.93l0,.05-1,1.2a.76.76,0,0,0-.11.14q-4.86,5.93-9.42,12.1l-.12.15-.74,1,0,.05c-.12.15-.23.31-.34.46l-.13.17-1.63,2.27-.5.72a.86.86,0,0,0-.07.1q-4.93,7-9.47,14.33l-.05.07-.42.67,0,.06q-4.41,7.2-8.42,14.61c-.05.11-.11.22-.17.33l0,.09-.72,1.36c-.08.14-.16.29-.23.44a.25.25,0,0,0,0,.07q-4.31,8.19-8.12,16.62l-.05.1a320.2,320.2,0,0,0-12.88,33.59A314.72,314.72,0,0,0,405.57,469a331.8,331.8,0,0,0-6.16,73.48c.13,4.76.37,9.53.7,14.28,0,0,0,0,0,.07l0,.47a.25.25,0,0,0,0,.08c.15,2.12.33,4.24.52,6.36v0c0,.1,0,.2,0,.29,0,.39.07.77.11,1.15a1.36,1.36,0,0,1,0,.2,328.72,328.72,0,0,0,11.27,59.06s0,.06,0,.09a.14.14,0,0,0,0,.07,318.63,318.63,0,0,0,15.34,41.53,1.12,1.12,0,0,0,.05.13l.11.24h0q4.83,10.62,10.45,20.86s0,0,0,0l.63,1.13a.56.56,0,0,0,.05.08c.1.18.2.35.29.53a.75.75,0,0,0,.07.12c.13.24.26.48.4.71l.29.52.18.31,0,0q4.08,7.15,8.55,14.1a.36.36,0,0,0,.07.1c.1.17.21.33.31.49l0,.08.38.58v0h0l.17.27,0,.07q1.25,1.9,2.52,3.79l.13.17q3.63,5.34,7.49,10.52l0,.06c.41.54.81,1.08,1.22,1.61l0,.06.27.35.68.89.07.09.25.33a2.8,2.8,0,0,0,.37.48l.21.26.13.17.62.8,0,0,.17.22.12.15,1.27,1.61.05.06q1.92,2.41,3.9,4.8a2.33,2.33,0,0,0,1.69.7,2.44,2.44,0,0,0,1.7-.7,2.42,2.42,0,0,0,.7-1.7,2.45,2.45,0,0,0,0-.27h0a2.64,2.64,0,0,0-.67-1.41c-1.5-1.8-3-3.66-4.48-5.52-.64-.8-1.26-1.6-1.9-2.43l-.08-.11c-.32-.4-.63-.81-1-1.27l-.08-.08c-3.16-4.19-6.3-8.57-9.31-13-.9-1.33-1.78-2.66-2.69-4.06-.17-.26-.34-.52-.5-.78-3.16-4.91-6.2-9.94-9-15-.41-.72-.81-1.44-1.21-2.17-3.79-6.88-7.36-14-10.61-21.17-1.08-2.37-2.1-4.72-3.06-7a316.11,316.11,0,0,1-11.93-33.7,325.45,325.45,0,0,1-9.77-46l0-.15a.88.88,0,0,1,0-.16c-.59-4.45-1.09-8.84-1.48-13.05-.2-2.22-.39-4.52-.58-7A336.17,336.17,0,0,1,407,489.59a319.2,319.2,0,0,1,21.71-80l.07-.18.09-.2c.88-2.07,1.79-4.13,2.71-6.19l.05-.11c2.59-5.72,5.38-11.42,8.29-16.94l.26-.5.58-1.08c2.79-5.18,5.77-10.36,8.89-15.41,3.38-5.47,7-10.86,10.62-16,.33-.47.66-.93,1-1.4l.27-.38.35-.48.35-.48c1.18-1.61,2.31-3.12,3.38-4.49l.77-1h0l0,.06,0-.06-.06.05c1.8-2.33,3.77-4.79,5.86-7.33q2-2.42,4.05-4.78c3.12-3.59,6.37-7.14,9.64-10.54l2-2.06L488,320l.15-.15c1.85-1.87,3.7-3.69,5.5-5.41a2.39,2.39,0,0,0,.52-.74h0a2.45,2.45,0,0,0-.52-2.63,2.31,2.31,0,0,0-1.67-.69,2.44,2.44,0,0,0-1.71.69Z" transform="translate(-268.91 -250.64)"/><path class="cls-1" d="M915.31,311.86a2.35,2.35,0,0,0-.68,1.8h0l0,0a2.44,2.44,0,0,0,.68,1.55c2,2.07,3.77,4,5.55,6l.2.22.09.1.64.72c.42.46.83.93,1.24,1.4,3.08,3.51,6.15,7.2,9.13,11l.14.18.28.36.79,1,.12.16.13.17.54.7.2.26.23.3.92,1.22.41.53.41.55c3.19,4.28,6.35,8.76,9.37,13.32l.06.08.13.2.08.13c3.45,5.23,6.82,10.72,10,16.29,4.51,7.94,8.73,16.22,12.54,24.61,1.13,2.5,2.23,5,3.26,7.45a317.32,317.32,0,0,1,17.1,54.39c1.78,8.18,3.26,16.59,4.42,25a338.15,338.15,0,0,1,2.92,43.91c0,11-.57,22.14-1.68,33.09-.35,3.58-.77,7.14-1.24,10.71l0-.16a326.91,326.91,0,0,1-8.13,40.43,303.62,303.62,0,0,1-10.6,32.2q-1.51,3.88-3.13,7.73l.07-.12a304,304,0,0,1-20.41,39.72l-.77,1.24-.48.77-.3.49c-1,1.66-2.1,3.3-3.22,5l-.5.76-.19.29-.35.52-.18.27-.1.16-.12.17-.11.17c-.64,1-1.29,1.91-2,2.86l-.09.14-.22.32-.22.32-.08.11-.07.11-.29.42-.12.17-.2.29-.19.26-.19.27c-.09.12-.17.24-.25.37l-.24.33-.09.13-.13.19-.44.61-.32.45-.32.45-.09.12-.1.14-.61.83-.62.87-.13.16-.11.17-.15.19-.15.21c-.88,1.2-1.78,2.38-2.68,3.56l-.1.15-.09.11-.08.11-.45.58-.25.33c-2,2.52-4,5.09-6.13,7.62l-.1.13-.08.1c-.62.74-1.24,1.48-1.87,2.21l-.29.34L925,725l-.15.18-.19.22c-1.59,1.84-3.25,3.71-5.06,5.71h0l0,0a2.6,2.6,0,0,0-.7,1.75,2.34,2.34,0,0,0,.7,1.64,2.41,2.41,0,0,0,3.38,0q1.64-1.8,3.24-3.61l.84-1,0,0,.27-.31.87-1,.05-.06c.14-.15.27-.31.4-.46l.12-.14,0-.06.58-.68.06-.08a3.88,3.88,0,0,0,.26-.31l0,0,.66-.79.06-.07.42-.51.06-.06a1.34,1.34,0,0,1,.11-.14l0,0,.38-.45.76-.92.13-.17.08-.1.06-.07q4-4.93,7.86-10a1.83,1.83,0,0,0,.13-.16l.29-.4.33-.44h0c.18-.25.37-.5.55-.76l0,0,0,0c.31-.41.62-.83.92-1.25h0l.28-.39h0l.07-.11.69-1a.22.22,0,0,0,0-.08l.31-.42.1-.14.76-1.07,0,0,.25-.36.11-.16.5-.71.06-.08.53-.77c.9-1.3,1.8-2.61,2.68-3.93a.36.36,0,0,1,.07-.1c.13-.2.25-.4.39-.59s.15-.24.23-.35.19-.28.28-.43.28-.41.41-.62l.12-.18c.76-1.16,1.51-2.32,2.26-3.49a.56.56,0,0,1,0-.08c.19-.31.39-.62.59-.93l.07-.11.65-1,0-.06c.14-.21.27-.43.4-.64l0-.06.54-.88.39-.64,0-.07a308.55,308.55,0,0,0,29.92-65.65A323.51,323.51,0,0,0,999.94,552c.72-8.83,1-17.68,1.06-26.54v-.66A333.64,333.64,0,0,0,993.66,456s0-.06,0-.09l-.22-1,0-.06q-3.48-15.81-8.52-31.22a312.81,312.81,0,0,0-12.08-31,.61.61,0,0,0,0-.12l-.11-.25h0q-5.7-12.54-12.51-24.53a.36.36,0,0,0,0-.09c-.12-.2-.24-.41-.35-.62a.16.16,0,0,1,0-.07v0q-4.63-8-9.75-15.8l-.26-.4-.07-.1q-4.38-6.57-9.1-12.9l0-.07-.93-1.23-.09-.12c-.07-.08-.13-.17-.2-.26l0-.06-.34-.44-.26-.33,0-.06-.07-.08-.56-.73a2.22,2.22,0,0,0-.38-.49l-.17-.22-.52-.67-.47-.61-.12-.15c-.15-.2-.31-.39-.46-.58l-.77-1-.06-.07q-3.82-4.8-7.85-9.44L927,321c-.43-.5-.86-1-1.3-1.48l0,0,0,0c-.1-.11-.19-.22-.29-.32-.3-.35-.61-.69-.91-1l0,0-.14-.15h0s0,0-.06-.07-.25-.27-.37-.4a2,2,0,0,0-.19-.21l-.07-.09-.13-.13-.35-.39-.1-.1q-2.14-2.36-4.33-4.65a2.29,2.29,0,0,0-1.67-.69,2.43,2.43,0,0,0-1.72.69Z" transform="translate(-268.91 -250.64)"/><path class="cls-1" d="M530.3,250.64H514.21a2.42,2.42,0,0,0-2.39,2.39V287.7a2.4,2.4,0,0,0,4.77.32V268.26l0-12.85h84.64l0,0,0,53.48v1.48a2.4,2.4,0,1,0,4.79,0V253a2.41,2.41,0,0,0-2.39-2.39Z" transform="translate(-268.91 -250.64)"/><path class="cls-1" d="M511.82,268.26v40.63a2.4,2.4,0,0,0,4.79,0h0V267.94a2.4,2.4,0,0,0-4.77.32Z" transform="translate(-268.91 -250.64)"/><path class="cls-2" d="M862.59,366.9a31.39,31.39,0,0,0-3.59.21,29.51,29.51,0,0,0-6.73,1.84,30.2,30.2,0,0,0-5.94,3.48,31,31,0,0,0-4.62,4.62,30.47,30.47,0,0,0-3.57,6.09,29.87,29.87,0,0,0-1.8,6.65c-.11,1-.18,1.9-.2,2.78a31.81,31.81,0,0,0,.2,4.27,29.92,29.92,0,0,0,1.84,6.71,29,29,0,0,0,3.36,5.8,30.47,30.47,0,0,0,4.91,4.92A26.2,26.2,0,0,0,859,419.51a29.24,29.24,0,0,0,3.53.2,31.17,31.17,0,0,0,3.47-.19,30.75,30.75,0,0,0,6.75-1.84,30.37,30.37,0,0,0,6-3.55,30.71,30.71,0,0,0,4.68-4.72,30.15,30.15,0,0,0,3.42-5.87c.23-.57.45-1.15.65-1.74a32.09,32.09,0,0,0,1.18-5,30.78,30.78,0,0,0,0-7.05,26.5,26.5,0,0,0-5.27-12.59,30.79,30.79,0,0,0-4.73-4.75,30.23,30.23,0,0,0-6-3.5,30.58,30.58,0,0,0-6.17-1.74l-.46-.07c-.56-.07-1-.12-1.54-.16-.66,0-1.34-.06-2-.06Z" transform="translate(-268.91 -250.64)"/><path class="cls-3" d="M701,428c-3.29,0-6.63.13-9.91.39l-1.22.1c-1.81.17-3.55.37-5.17.58l-.51.07a124.13,124.13,0,0,0-18.29,4.1l-.14,0-.13,0-.1,0c-3.75,1.16-7.48,2.51-11.09,4-1.06.45-2.11.91-3.16,1.4l-.09,0-.09,0-.12.06-.24.11-.16.07a122.62,122.62,0,0,0-11.75,6.3c-.17.09-.29.17-.4.24l-.11.07-.29.17-.17.11-.11.07-.11.07-.25.15-.14.09-.17.11-.18.11c-3.13,2-6.22,4.13-9.16,6.38-3.13,2.43-6.18,5.06-9.09,7.8l-.19.19-.15.14-.11.1-.23.22-.08.08-.08.08-.18.17-.11.11-.11.11-.12.11-.15.14-.14.15a123.84,123.84,0,0,0-11.08,12.42c-2,2.65-4,5.38-5.71,8.11l-.06.1-.1.15-.1.15-.17.27-.08.15A118.41,118.41,0,0,0,582,532a126.41,126.41,0,0,0-.89,22.44,4.75,4.75,0,0,1,0,.5l0,.27v.24l0,.51,0,.29v.22l0,.51,0,.47a.49.49,0,0,0,0,.14l0,.33,0,.1h0l0,.28,0,.2v.13l0,.39,0,.12v.19l0,.19v.13l0,.2V560l0,.11v.2l0,.2v.12c0,.13,0,.27.05.4l0,.51v.09l.05.43,0,.27,0,.24,0,.29,0,.23,0,.27,0,.24,0,.34,0,.36a123.41,123.41,0,0,0,8.41,30.63c.71,1.65,1.47,3.32,2.25,4.95l.11.21.09.19.12.24.08.17.05.1.08.16.08.16.06.13c.05.09.09.19.14.28l.09.17.06.13.07.13.09.18.12.24,0,.1.06.1c0,.07.07.14.1.22l.12.23.07.12.17.33.07.14c.06.1.11.2.16.3l.06.1.18.35.14.26.1.18.13.25.11.2a125.68,125.68,0,0,0,10.42,16.07c.64.81,1.28,1.62,1.94,2.42l.28.35.12.12.19.25.14.17.08.09.07.1.07.08.12.14.13.14.21.26.08.1.12.14.12.14.08.09.13.15.14.16.32.37.12.14.21.24.31.36.19.2.14.17.11.12.21.24.31.33.19.22.15.16.17.19.16.17.1.11.21.23.33.35.06.08.13.13.13.14.09.1.23.25.11.11.22.23.13.13.19.21.08.08.08.08.09.08.08.09.1.1.1.1.13.14.22.22.11.12.13.13.12.13.08.07.28.29a128.11,128.11,0,0,0,11.75,10.4,119.64,119.64,0,0,0,57.38,23.94l-.28-.08A119.4,119.4,0,0,0,701,668.2c3.36,0,6.79-.14,10.2-.42,1.95-.16,4-.38,6-.64,1.73-.25,3.45-.52,5.11-.83l.2,0,.14,0,.14,0,.27-.06.32-.06.49-.09a123.17,123.17,0,0,0,23.92-7.28l.44-.18.13-.06.2-.09.2-.09a120.09,120.09,0,0,0,71.26-126.39,119.75,119.75,0,0,0-23.9-57.14,120.58,120.58,0,0,0-48.31-37.33,123.57,123.57,0,0,0-30.58-8.4A126.44,126.44,0,0,0,701,428Zm-2.36,193.25a70.79,70.79,0,1,1,70.79-70.79,70.87,70.87,0,0,1-70.79,70.79Z" transform="translate(-268.91 -250.64)"/><path class="cls-4" d="M914.63,313.66H494.17a2.39,2.39,0,0,1-.52.74c-1.8,1.72-3.65,3.54-5.5,5.41L488,320l-.15.16-2,2.06c-3.27,3.41-6.52,6.95-9.64,10.54q-2,2.37-4.05,4.78c-2.09,2.53-4.06,5-5.86,7.33l.12-.09c-1.3,1.63-2.71,3.5-4.2,5.53l-.35.48-.35.48-.27.38c-.35.47-.68.93-1,1.4-3.67,5.14-7.24,10.53-10.63,16-3.11,5.06-6.1,10.24-8.88,15.42l-.58,1.08-.26.5c-2.91,5.52-5.7,11.21-8.29,16.94l-.05.11c-.92,2.06-1.83,4.12-2.71,6.19l-.09.2-.07.18a318.77,318.77,0,0,0-21.71,80A336.17,336.17,0,0,0,404.9,557c.19,2.5.38,4.79.58,7,.4,4.21.89,8.6,1.48,13.05,0,0,0,.11,0,.16l0,.15a326.83,326.83,0,0,0,9.76,46,318.37,318.37,0,0,0,11.94,33.7c1,2.26,2,4.61,3.06,7,3.25,7.17,6.82,14.29,10.61,21.17l1.21,2.17c2.83,5,5.87,10.06,9,15,.16.27.33.52.5.78.91,1.4,1.79,2.74,2.69,4.06,3,4.47,6.14,8.85,9.31,13l.08.08c.33.46.64.86,1,1.27l.08.1c.64.84,1.26,1.64,1.9,2.44,1.47,1.86,3,3.72,4.48,5.52a2.57,2.57,0,0,1,.67,1.41l39,0H919.59c1.81-2,3.46-3.86,5.06-5.71l.19-.21L925,725l.35-.41.29-.34,1.87-2.21.08-.1.1-.13c2.11-2.53,4.17-5.1,6.13-7.63l.25-.32.45-.58.09-.11.08-.11.1-.15c.9-1.18,1.8-2.36,2.68-3.56l.15-.21.15-.2.11-.16.13-.17.62-.86.61-.83.1-.13.09-.13.32-.45.32-.45.44-.61.13-.19.09-.13.24-.33.25-.36.19-.27.19-.27.2-.29.12-.17.29-.42.07-.11.08-.11.22-.31.22-.33.09-.14c.66-1,1.31-1.9,2-2.86l.11-.16.12-.18.1-.15.18-.28.35-.51.19-.3.5-.76c1.12-1.7,2.18-3.34,3.22-5l.3-.49.48-.77.77-1.24a304,304,0,0,0,20.41-39.72l-.14.24a306.36,306.36,0,0,0,13.8-40.05,327.28,327.28,0,0,0,8.13-40.43l-.08.31a329.73,329.73,0,0,0,3-43.95,338.15,338.15,0,0,0-2.92-43.91c-1.16-8.42-2.64-16.83-4.42-25a317.32,317.32,0,0,0-17.1-54.39c-1-2.45-2.13-4.95-3.26-7.45-3.81-8.39-8-16.67-12.54-24.61-3.19-5.58-6.55-11.06-10-16.29l-.08-.13-.13-.2-.06-.08c-3-4.56-6.18-9-9.37-13.32l-.41-.55-.41-.53-.92-1.22-.23-.3-.2-.26-.54-.7-.13-.17-.12-.16-.79-1-.28-.36-.14-.18c-3-3.76-6.06-7.45-9.13-11l-1.24-1.4-.64-.72-.09-.1-.2-.22c-1.78-2-3.59-3.93-5.55-6a2.44,2.44,0,0,1-.68-1.55l0,0ZM862.52,424.47a31.32,31.32,0,0,1-13.2-2.94A31.68,31.68,0,0,1,836.22,410a31.09,31.09,0,0,1-3.55-7.79,31.85,31.85,0,0,1-1.29-9.37v-.13a.41.41,0,0,1,0-.11,31.18,31.18,0,0,1,4.06-14.7A31.67,31.67,0,0,1,845,367.56a30.09,30.09,0,0,1,12.72-5,35.38,35.38,0,0,1,5-.39c.71,0,1.4,0,2,.08a33.51,33.51,0,0,1,6,1l.23.07a30,30,0,0,1,7.16,3,31.65,31.65,0,0,1,10,9.24,30.08,30.08,0,0,1,5.18,13,30.86,30.86,0,0,1,.19,8,34.53,34.53,0,0,1-1.32,6.32l0,.1A31.3,31.3,0,0,1,875,421.89a31.25,31.25,0,0,1-8.66,2.34,29.35,29.35,0,0,1-3.77.24Zm-172.3-.76h0l.5,0c3.35-.27,6.8-.42,10.25-.42a126.41,126.41,0,0,1,19.92,1.59,123.78,123.78,0,0,1,32,9.71,125.18,125.18,0,0,1,63,64.7,125,125,0,0,1,4.32,86,125.07,125.07,0,0,1-8.36,20.29l-.22.43-.06.11-.28.53-.08.15-.28.51a127.32,127.32,0,0,1-8,12.81l-.08.12c-.85,1.18-1.72,2.35-2.58,3.48l-.1.13-.17.22c-.37.48-.74,1-1.12,1.43-.59.76-1.19,1.5-1.8,2.24a123.27,123.27,0,0,1-15.85,16,127.57,127.57,0,0,1-18.25,12.79l-1.95,1.09a122.87,122.87,0,0,1-34.16,12.7,127.78,127.78,0,0,1-26,2.71,119.69,119.69,0,0,1-13-.7c-2.94-.3-6-.73-9-1.27-1-.17-2-.37-3-.57-3.11-.62-6.2-1.37-9.19-2.23l-2.19-.65a123.27,123.27,0,0,1-27.64-12.29c-1.07-.64-2.14-1.31-3.19-2a125.42,125.42,0,0,1-21.17-17.07,123.59,123.59,0,0,1-8.62-9.62,123.85,123.85,0,0,1-25.74-55.89l0-.15-.07-.36,0-.18,0-.19,0-.19,0-.25-.05-.25,0-.13-.09-.56-.06-.36,0-.3-.05-.35,0-.29c0-.26-.07-.45-.09-.64l-.06-.37,0-.27,0-.13,0-.27,0-.23V565l-.06-.39,0-.17,0-.17s0-.08,0-.12a124.52,124.52,0,0,1-1-18.68c0-1.19.07-2.39.13-3.58a124.48,124.48,0,0,1,4.38-27.28l0-.12.06-.17,0-.17c.9-3.21,2-6.4,3.1-9.47,0-.07.05-.13.07-.19a125.56,125.56,0,0,1,7.28-16c.9-1.66,1.84-3.29,2.78-4.85a127.48,127.48,0,0,1,13.53-18.38c2.25-2.53,4.63-5,7.07-7.33l.21-.21.18-.17a126.08,126.08,0,0,1,12-10.09l.26-.19.12-.08a121.85,121.85,0,0,1,15.68-9.77c2-1,4.06-2,6.15-3a124.57,124.57,0,0,1,28.52-9.06l.47-.08.33-.06c.7-.13,1.32-.23,1.93-.33l.1,0,1.78-.27.93-.14h.11a2.18,2.18,0,0,1,.63-.09c1.73-.23,3.46-.43,5.16-.6l.11,0,.64,0h.14l.11,0h0Z" transform="translate(-268.91 -250.64)"/><polygon class="cls-2" points="332.34 4.77 317.34 4.77 247.7 4.77 247.68 17.62 247.68 58.25 260.45 58.27 332.34 58.27 332.36 4.79 332.34 4.77 332.34 4.77 332.34 4.77"/><text class="cls-5" transform="translate(1 351.97) scale(1.02 1)">FAV PIC</text></svg>